<?xml version="1.0" encoding="UTF-8"?>
<svg version="1.1" xmlns="http://www.w3.org/2000/svg" width="500" height="500">
<path d="M0 0 C4.22961609 2.08667023 8.25094015 4.54234285 12.3125 6.9375 C13.99569336 7.90719727 13.99569336 7.90719727 15.71289062 8.89648438 C16.77314453 9.51716797 17.83339844 10.13785156 18.92578125 10.77734375 C19.89942627 11.34702881 20.87307129 11.91671387 21.8762207 12.50366211 C22.57706787 12.99745361 23.27791504 13.49124512 24 14 C24 14.66 24 15.32 24 16 C23.36835938 16.3403125 22.73671875 16.680625 22.0859375 17.03125 C15.03779033 20.8498427 8.06757789 24.7952042 1.11669922 28.78710938 C-1.24142389 30.13833839 -3.60290019 31.48358559 -5.96484375 32.828125 C-14.8588858 37.89376912 -23.72942356 42.99201347 -32.53735352 48.20605469 C-38.24027866 51.57391857 -43.99149452 54.8532847 -49.75 58.125 C-56.65026206 62.04653507 -63.44632825 66.07935829 -70.1796875 70.28125 C-72.83258796 71.89797604 -75.5137502 73.40477623 -78.25 74.875 C-79.55130859 75.62330078 -79.55130859 75.62330078 -80.87890625 76.38671875 C-83.41952341 77.6999539 -85.79257982 78.67173096 -88.46484375 79.64453125 C-93.37704088 81.65505778 -97.90830353 83.51430679 -101 88 C-103.14362592 96.77227045 -102.03260078 106.12056779 -101 115 C-99.436091 114.06267837 -97.87231541 113.12513414 -96.30859375 112.1875 C-95.43775146 111.66542969 -94.56690918 111.14335938 -93.66967773 110.60546875 C-91.12934477 109.07778429 -88.59526187 107.54019303 -86.0625 106 C-81.79993436 103.44246061 -77.46586201 101.04772735 -73.09375 98.68359375 C-63.02777315 93.20577049 -53.09519532 87.50331093 -43.23168945 81.66992188 C-38.69729773 78.99015228 -34.14216801 76.35158363 -29.5625 73.75 C-25.61476093 71.50573738 -21.69449719 69.2310549 -17.8125 66.875 C-14.57137192 64.91186482 -11.29481479 63.05521566 -7.95703125 61.26171875 C-1.85389856 57.94694109 4.13827206 54.45708591 10.125 50.9375 C16.28360049 47.3209767 22.44855382 43.73292694 28.703125 40.28491211 C33.32317665 37.70037429 37.8731056 34.99366727 42.4375 32.3125 C50.66126988 27.49341905 58.91799411 22.75243405 67.29077148 18.1965332 C71.34005389 15.9807043 75.16467824 13.57619827 79 11 C80.77887441 9.99778113 82.57044138 9.01769892 84.375 8.0625 C88.50648568 5.87062632 92.31901148 3.50519583 96.05078125 0.6875 C99.19463746 -0.4213551 100.98655186 0.69572518 104 2 C106.80947801 3.48844618 109.53052392 5.10386552 112.25 6.75 C113.00724365 7.20173584 113.7644873 7.65347168 114.54467773 8.11889648 C117.62659909 9.95973138 120.69818114 11.81737618 123.76953125 13.67578125 C129.1607423 16.93622405 134.6252832 20.04693774 140.12646484 23.11694336 C146.52842824 26.704314 152.85735722 30.41274013 159.1875 34.125 C167.37280415 38.92204631 175.58018057 43.62564069 184 48 C184 48.66 184 49.32 184 50 C184.969375 50.20625 185.93875 50.4125 186.9375 50.625 C191.04071344 51.79264791 194.08863443 53.93841966 197.55859375 56.36328125 C200.95338226 58.63914747 204.52359617 60.51565559 208.125 62.44140625 C212.07902735 64.58496184 215.94669811 66.86629928 219.82421875 69.14453125 C223.24381601 71.14245093 226.68222778 73.1049275 230.125 75.0625 C235.80033387 78.29282221 241.42085212 81.60623262 247 85 C245.65953251 88.24680708 244.63667484 89.52838364 241.41796875 90.921875 C236.82853816 93.04437029 232.6046843 95.5851134 228.3125 98.25 C227.52359375 98.73597656 226.7346875 99.22195312 225.921875 99.72265625 C223.61283357 101.1456265 221.30630832 102.57260595 219 104 C216.83421697 105.33477448 214.66704826 106.66727909 212.5 108 C211.47648437 108.63035156 210.45296875 109.26070313 209.3984375 109.91015625 C199.52785964 115.97999436 199.52785964 115.97999436 194.8215332 118.8347168 C191.08128081 121.10386428 187.36501031 123.39764293 183.69140625 125.7734375 C182.67699463 126.41647827 182.67699463 126.41647827 181.64208984 127.07250977 C180.37130539 127.87869441 179.10924268 128.69885367 177.85791016 129.53491211 C176.13671875 130.61328125 176.13671875 130.61328125 173 132 C169.18180701 130.82468137 165.79855474 128.86674726 162.32421875 126.91796875 C161.24849609 126.31533203 160.17277344 125.71269531 159.06445312 125.09179688 C157.95005859 124.46337891 156.83566406 123.83496094 155.6875 123.1875 C154.58470703 122.57068359 153.48191406 121.95386719 152.34570312 121.31835938 C147.21539645 118.43619903 142.14942183 115.50368444 137.18383789 112.34741211 C132.00117012 109.14974375 126.66885776 106.19649877 121.375 103.1875 C120.18090185 102.50731545 118.986891 101.82697764 117.79296875 101.14648438 C115.40255969 99.78430791 113.01185087 98.42266016 110.62084961 97.06152344 C109.41389398 96.37435908 108.20694417 95.6871845 107 95 C106.0747905 94.47327698 106.0747905 94.47327698 105.13088989 93.93591309 C98.45268716 90.13246938 91.78939097 86.30988417 85.1875 82.375 C77.7247711 77.95935852 70.18497536 73.68414282 62.625 69.4375 C61.52438232 68.8172998 60.42376465 68.19709961 59.28979492 67.55810547 C58.25830322 66.9807666 57.22681152 66.40342773 56.1640625 65.80859375 C55.24061035 65.29095459 54.3171582 64.77331543 53.36572266 64.23999023 C50.95551241 62.89609649 50.95551241 62.89609649 48 62 C45.31081322 63.36871165 42.80837651 64.79110814 40.25 66.375 C39.11860596 67.05804199 39.11860596 67.05804199 37.96435547 67.75488281 C35.63749881 69.16123011 33.31867747 70.58021932 31 72 C28.99660124 73.21403903 26.99090907 74.42412162 24.98339844 75.63134766 C23.23858163 76.68163019 21.4980421 77.73900921 19.7578125 78.796875 C15.91792334 81.08567332 11.98555321 83.1964724 8.05615234 85.32666016 C2.41330677 88.41629616 -3.16606157 91.61810004 -8.75 94.8125 C-9.36528564 95.16382996 -9.98057129 95.51515991 -10.61450195 95.87713623 C-17.62474258 99.88100434 -24.60942905 103.91731766 -31.5 108.125 C-36.55029981 111.19833487 -41.66198673 113.92702923 -47.0234375 116.41796875 C-49.52921165 117.74977785 -51.76371664 119.15905999 -54.1015625 120.75390625 C-59.54246375 124.4391119 -65.24602782 127.58424579 -71 130.75 C-74.09659293 132.45846506 -77.18414872 134.1699189 -80.23864746 135.95278931 C-82.8701652 137.44740905 -85.51664964 138.64957396 -88.31921387 139.78817749 C-96.56065288 143.3572123 -96.56065288 143.3572123 -101.96173096 150.16593933 C-103.4913573 156.68351188 -103.06946468 163.35086103 -102.84375 169.9921875 C-102.83158788 172.19392567 -102.82716665 174.39571843 -102.82997131 176.5974884 C-102.81760699 182.47947951 -102.70382727 188.35546721 -102.57115555 194.23580551 C-102.45253815 200.30239872 -102.43002517 206.36919298 -102.40209961 212.43676758 C-102.35602411 220.91981516 -102.28407466 229.4017425 -102.17405224 237.88420582 C-101.94528207 255.70464689 -102.12771269 273.50384316 -102.47851562 291.32110596 C-102.5630342 295.62976867 -102.63329435 299.93857542 -102.69921875 304.24755859 C-102.79496221 310.49845324 -102.89511807 316.74925233 -103 323 C-101.84369583 323.45263466 -101.84369583 323.45263466 -100.66403198 323.91441345 C-97.82729492 325.0703769 -95.24221853 326.44406918 -92.5703125 327.94140625 C-91.01836182 328.80971069 -91.01836182 328.80971069 -89.43505859 329.69555664 C-87.79657959 330.6196936 -87.79657959 330.6196936 -86.125 331.5625 C-84.99529785 332.19728271 -83.8655957 332.83206543 -82.70166016 333.48608398 C-76.87922943 336.76970779 -71.08445709 340.08602336 -65.375 343.5625 C-57.09337779 348.60348743 -48.63790377 353.33112973 -40.1875 358.08203125 C-34.11797137 361.49488037 -28.08308804 364.91559387 -22.1875 368.625 C-16.19284534 372.33630519 -10.08195541 375.78786174 -3.88354492 379.14697266 C0.56086874 381.574897 4.88609151 384.14627022 9.1875 386.8203125 C15.44284339 390.6962223 21.80191433 394.34289901 28.24169922 397.90234375 C30.02954934 398.89134609 31.81369315 399.88681897 33.59765625 400.8828125 C35.31275391 401.83414063 35.31275391 401.83414063 37.0625 402.8046875 C38.59583984 403.65522705 38.59583984 403.65522705 40.16015625 404.52294922 C42.76288082 405.8766703 45.19516818 407.13647675 48 408 C50.46626633 406.952598 52.40167354 405.92985113 54.625 404.5 C55.88478889 403.73334248 57.14521127 402.96772498 58.40625 402.203125 C59.02242187 401.82220703 59.63859375 401.44128906 60.2734375 401.04882812 C62.5105818 399.68983889 64.80807723 398.46711766 67.125 397.25 C72.52011077 394.33632 77.75291198 391.16943372 83 388 C89.0696716 384.33369562 95.1478712 380.74317862 101.40234375 377.3984375 C110.49388107 372.50404598 119.34878434 367.20740765 128.1875 361.875 C134.07856657 358.322713 139.97478277 354.84121681 146.05004883 351.61083984 C148.79901172 350.10975095 151.47639892 348.53308704 154.15234375 346.90625 C155.09086182 346.34808594 156.02937988 345.78992188 156.99633789 345.21484375 C158.89099568 344.08617983 160.77724532 342.94326002 162.65405273 341.78515625 C163.96611694 341.00978516 163.96611694 341.00978516 165.3046875 340.21875 C166.08827637 339.74373047 166.87186523 339.26871094 167.67919922 338.77929688 C170 338 170 338 172.54321289 338.71411133 C174.74837003 339.86829623 176.89160389 341.03981808 179.00390625 342.35546875 C179.74576172 342.81373047 180.48761719 343.27199219 181.25195312 343.74414062 C182.01443359 344.22044922 182.77691406 344.69675781 183.5625 345.1875 C190.63810309 349.58417186 197.79376574 353.8209477 205 358 C206.91835288 359.11913348 208.83632715 360.23891621 210.75390625 361.359375 C223.15446175 368.59865238 235.56732332 375.81602409 248 383 C247.23828125 386.83105469 247.23828125 386.83105469 245.09375 388.3515625 C244.2378125 388.77179688 243.381875 389.19203125 242.5 389.625 C237.38494259 392.24913102 232.43611881 395.05877515 227.5 398 C221.79748645 401.38290031 216.04994032 404.63736337 210.20703125 407.7734375 C207.8248902 409.05848102 207.8248902 409.05848102 205 411 C202.41580849 412.72279434 199.85769353 414.19056942 197.125 415.65625 C190.67917934 419.1505633 184.33933327 422.81693666 178 426.5 C170.79790426 430.68431619 163.58294211 434.81864455 156.2421875 438.75585938 C153.83014092 440.05449958 153.83014092 440.05449958 151 442 C147.44773247 444.36817836 143.74992252 446.34184385 139.9921875 448.36328125 C135.93411616 450.58303568 131.95894569 452.93576873 127.97265625 455.28125 C125.15444058 456.91070453 122.30787834 458.46477631 119.4375 460 C114.60457431 462.59481249 110.05067031 465.51051694 105.5078125 468.58203125 C102.84459796 470.08786751 101.05378529 470.82345304 98 471 C95.4921875 470.03125 95.4921875 470.03125 92.875 468.5 C91.92367188 467.94957031 90.97234375 467.39914062 89.9921875 466.83203125 C86.0575238 464.42294864 82.16583046 461.95511802 78.3125 459.41796875 C75.97959666 457.86746411 75.97959666 457.86746411 73 457 C73.19921875 455.17578125 73.19921875 455.17578125 74 453 C76.08203125 451.54296875 76.08203125 451.54296875 78.8125 450.1875 C82.94957212 448.06276826 86.99764701 445.87002079 91 443.5 C94.65638421 441.35193265 98.32787636 439.25873111 102.0625 437.25 C108.89421629 433.55771403 115.58718088 429.62780682 122.30078125 425.7265625 C126.19059973 423.46654751 130.09121635 421.22704438 134 419 C146.1270533 412.07836022 158.23211729 405.14800417 170.0859375 397.765625 C173.74735406 395.54717958 177.5029471 393.53736039 181.27734375 391.51953125 C185.98444521 388.89246889 190.48966974 385.94872655 195 383 C191.23232644 379.82459331 187.27106385 377.24463358 183 374.8125 C182.39671875 374.45736328 181.7934375 374.10222656 181.171875 373.73632812 C177.82645799 371.81998599 174.87524815 370.2960259 171 370 C168.48173322 371.2066695 166.3294309 372.48208564 164 374 C153.63688961 380.48861416 143.07776102 386.57965715 132.44433594 392.61181641 C129.18704409 394.4616927 125.93735762 396.32459535 122.6875 398.1875 C118.53637475 400.56166951 114.37384863 402.91366367 110.20043945 405.24829102 C103.76227426 408.85194564 97.36118471 412.51191922 91 416.25 C90.31832764 416.65009277 89.63665527 417.05018555 88.93432617 417.46240234 C85.54409928 419.46279787 82.18541533 421.5022056 78.85546875 423.6015625 C75.73311543 425.5636179 72.56624471 427.38650282 69.3125 429.125 C66.60010719 430.57736663 63.9534102 432.02959175 61.35546875 433.6796875 C59 435 59 435 56 435 C56 435.66 56 436.32 56 437 C54.35064453 437.85271484 54.35064453 437.85271484 52.66796875 438.72265625 C45.07683899 442.67654893 37.67349364 446.70721834 30.5078125 451.40234375 C27.19811003 453.51086137 23.77211436 455.34156269 20.3046875 457.17578125 C17.57883283 458.6804788 14.91950009 460.24224553 12.2578125 461.85546875 C10.99130859 462.6148877 10.99130859 462.6148877 9.69921875 463.38964844 C8.00464674 464.40857736 6.31688121 465.43892693 4.63671875 466.48144531 C3.85167969 466.9503418 3.06664062 467.41923828 2.2578125 467.90234375 C1.5580127 468.33023193 0.85821289 468.75812012 0.13720703 469.19897461 C-2.64492575 470.24171823 -4.18608774 469.85594182 -7 469 C-9.33788904 467.72427005 -11.56558426 466.41823238 -13.8125 465 C-15.15112862 464.17510818 -16.49101484 463.35225432 -17.83203125 462.53125 C-18.86384521 461.89896484 -18.86384521 461.89896484 -19.91650391 461.25390625 C-23.23401597 459.25733466 -26.61481848 457.37876953 -30 455.5 C-35.85772332 452.23822452 -41.62266079 448.85089199 -47.35546875 445.375 C-51.85460361 442.65854122 -56.40891808 440.05757127 -61 437.5 C-66.90348114 434.21067243 -72.71904109 430.80131189 -78.50048828 427.30249023 C-83.72888231 424.14444136 -89.02406356 421.11331381 -94.3359375 418.09765625 C-99.13856323 415.36060548 -103.89401922 412.54340817 -108.65014648 409.7265625 C-112.11991929 407.67604382 -115.59956513 405.65194065 -119.12109375 403.69140625 C-120.08789062 403.1509668 -120.08789062 403.1509668 -121.07421875 402.59960938 C-122.82622627 401.62443538 -124.58288564 400.65763235 -126.33984375 399.69140625 C-129 398 -129 398 -131 395 C-131.22705078 391.90551758 -131.22705078 391.90551758 -131.1953125 388.14453125 C-131.1924826 387.48289474 -131.18965271 386.82125824 -131.18673706 386.13957214 C-131.17555918 384.03036263 -131.15045981 381.92158075 -131.125 379.8125 C-131.11496707 378.38086552 -131.10584176 376.94922436 -131.09765625 375.51757812 C-131.07562795 372.01158023 -131.04111485 368.50583187 -131 365 C-127.3646574 365.65672873 -125.05992464 366.38417358 -122.0625 368.5625 C-116.63158971 372.32236097 -110.92446542 375.53513537 -105.17529297 378.77392578 C-82.57982513 391.50955311 -82.57982513 391.50955311 -73.3671875 397.5078125 C-70.08698361 399.57553178 -66.68720875 401.38230891 -63.26953125 403.2109375 C-58.18836826 405.99131103 -53.19352192 408.91849399 -48.18603516 411.82885742 C-43.42726607 414.59441743 -38.65958866 417.34185155 -33.875 420.0625 C-30.09707526 422.21116695 -26.33947867 424.38527054 -22.60546875 426.609375 C-21.85088379 427.05788818 -21.09629883 427.50640137 -20.31884766 427.96850586 C-18.85922847 428.83792846 -17.40171828 429.71090578 -15.94677734 430.58813477 C-11.73978103 433.09306772 -7.63509797 435.38949986 -3 437 C0.07677175 435.85272918 2.25284289 434.70719479 5 433 C6.04800781 432.42894531 7.09601563 431.85789062 8.17578125 431.26953125 C12.69765201 428.80956117 12.69765201 428.80956117 17 426 C17 425.01 17 424.02 17 423 C16.45504883 422.89655273 15.91009766 422.79310547 15.34863281 422.68652344 C12.43458723 421.8347255 10.06787466 420.50602124 7.421875 419.015625 C6.34292969 418.40976562 5.26398438 417.80390625 4.15234375 417.1796875 C3.02957031 416.54289062 1.90679687 415.90609375 0.75 415.25 C-0.35730469 414.62867188 -1.46460938 414.00734375 -2.60546875 413.3671875 C-8.49509034 410.04770993 -14.31645513 406.66170446 -20 403 C-20.98226562 402.36835938 -21.96453125 401.73671875 -22.9765625 401.0859375 C-24.74823664 399.94140465 -26.5190652 398.79556185 -28.2890625 397.6484375 C-30.97639169 395.96185662 -30.97639169 395.96185662 -33.82885742 394.59350586 C-36.77618693 393.11246654 -39.60806036 391.52937465 -42.44921875 389.85546875 C-43.46306641 389.26056641 -44.47691406 388.66566406 -45.52148438 388.05273438 C-47.08866211 387.12944336 -47.08866211 387.12944336 -48.6875 386.1875 C-55.59495228 382.11944043 -62.53032993 378.14218704 -69.58178711 374.32885742 C-72.6030965 372.66858614 -75.51820344 370.89626796 -78.4375 369.0625 C-83.6292998 365.83300368 -88.87236534 362.7148614 -94.1640625 359.65234375 C-96.81452697 358.10806486 -99.44060831 356.5296582 -102.0625 354.9375 C-106.40542208 352.3178494 -110.83827322 349.89691529 -115.30078125 347.48828125 C-117.80171171 346.10933117 -120.24756543 344.67107831 -122.6875 343.1875 C-127.12063645 340.49924606 -131.6099014 337.92220599 -136.125 335.375 C-136.78201904 335.00270264 -137.43903809 334.63040527 -138.1159668 334.24682617 C-142.67646922 331.68371557 -147.30626142 329.31028113 -152 327 C-152 326.34 -152 325.68 -152 325 C-152.82886719 324.75765625 -153.65773438 324.5153125 -154.51171875 324.265625 C-158.55212025 322.79967866 -162.09335456 320.8823576 -165.8125 318.75 C-166.47314453 318.38003906 -167.13378906 318.01007813 -167.81445312 317.62890625 C-169.13757103 316.87832823 -170.44968486 316.10793689 -171.74863625 315.31627178 C-173.97744507 313.96656584 -173.97744507 313.96656584 -176.33930016 312.9091692 C-179.00913502 311.50527807 -180.93246682 310.20856527 -183 308 C-184.3174781 303.60801765 -184.14938501 299.34955691 -184.03759766 294.79370117 C-184.03669518 293.44782727 -184.03974957 292.10194579 -184.04644775 290.75608826 C-184.05328916 287.11026519 -184.00455711 283.46707733 -183.94547701 279.82180572 C-183.8927708 275.99844966 -183.89057014 272.17505823 -183.88265991 268.35139465 C-183.86244641 261.92772748 -183.80983428 255.50502803 -183.73388672 249.08178711 C-183.62706292 240.04542679 -183.57637826 231.00941865 -183.53813863 221.97254217 C-183.48403905 209.8454403 -183.41249258 197.71810423 -183.27774811 185.59160805 C-183.25710006 183.6646976 -183.24066817 181.73774339 -183.22439575 179.81079102 C-183.00487738 162.03003362 -183.00487738 162.03003362 -179.85449219 158.80078125 C-178.92797852 158.30964844 -178.00146484 157.81851563 -177.046875 157.3125 C-175.52900391 156.48298828 -175.52900391 156.48298828 -173.98046875 155.63671875 C-172.91441406 155.09660156 -171.84835938 154.55648437 -170.75 154 C-169.69941406 153.42894531 -168.64882812 152.85789063 -167.56640625 152.26953125 C-163.00961317 149.83808653 -159.09140306 147.93217434 -154 147 C-154.00276538 148.08310093 -154.00276538 148.08310093 -154.00558662 149.1880827 C-154.04975272 166.75647558 -154.08285027 184.32485437 -154.10362434 201.89329052 C-154.11393751 210.38924846 -154.12799863 218.88516935 -154.15087891 227.38110352 C-154.17081152 234.78603954 -154.18371614 242.19094874 -154.18817699 249.59591085 C-154.19078458 253.51688256 -154.19691443 257.43777749 -154.21146011 261.35872459 C-154.22504199 265.04979766 -154.22922142 268.74076238 -154.22621536 272.43185806 C-154.2270273 274.43120455 -154.23778579 276.43053926 -154.24884033 278.42985535 C-154.246091 279.62312439 -154.24334167 280.81639343 -154.24050903 282.04582214 C-154.24327441 283.59858243 -154.24327441 283.59858243 -154.24609566 285.1827116 C-153.98184309 288.20785919 -153.40830208 290.31302714 -152 293 C-149.61927332 294.63567912 -147.4131829 295.9881214 -144.875 297.3125 C-143.88693359 297.85100586 -143.88693359 297.85100586 -142.87890625 298.40039062 C-141.25981704 299.28033041 -139.6308255 300.14200695 -138 301 C-138 301.66 -138 302.32 -138 303 C-137.38125 303.144375 -136.7625 303.28875 -136.125 303.4375 C-134 304 -134 304 -132 305 C-131.08530252 286.12836441 -130.71853524 267.26563347 -130.50033569 248.37600708 C-130.45905902 244.8297577 -130.4123714 241.28363909 -130.36123657 237.73751831 C-130.02603387 214.35606487 -129.98205166 190.99057002 -130.28143924 167.60895658 C-130.34394739 162.67243946 -130.39590975 157.73589947 -130.4410553 152.79919434 C-130.44748057 152.1023603 -130.45390584 151.40552627 -130.46052581 150.68757606 C-130.4862783 147.87494082 -130.51174867 145.06230415 -130.53596699 142.24965525 C-130.60848377 133.87241727 -130.71883257 125.49766347 -130.89026487 117.12184733 C-131.00847451 111.18036178 -131.06446255 105.23926929 -131.09902191 99.29667854 C-131.12393871 96.83104898 -131.17001301 94.36553273 -131.23834991 91.90072441 C-131.74720661 73.01709238 -131.74720661 73.01709238 -127.42886353 68.03170776 C-124.29971745 66.16883442 -121.47302315 65.05579642 -118 64 C-116.29260857 63.12093884 -114.60085846 62.2097774 -112.9375 61.25 C-111.60332031 60.52876953 -111.60332031 60.52876953 -110.2421875 59.79296875 C-100.73255007 54.53402468 -91.38471437 48.97771655 -82 43.5 C-81.09378906 42.97277344 -80.18757813 42.44554687 -79.25390625 41.90234375 C-76.54779997 40.32026241 -73.84934006 38.72641759 -71.15234375 37.12890625 C-69.4141628 36.10660028 -67.67588125 35.08446534 -65.9375 34.0625 C-65.10283203 33.56492188 -64.26816406 33.06734375 -63.40820312 32.5546875 C-62.62251953 32.09449219 -61.83683594 31.63429687 -61.02734375 31.16015625 C-60.32343506 30.74386963 -59.61952637 30.32758301 -58.89428711 29.89868164 C-57 29 -57 29 -54 29 C-54 28.34 -54 27.68 -54 27 C-53.50709473 26.72849121 -53.01418945 26.45698242 -52.50634766 26.17724609 C-40.2931338 19.4466433 -40.2931338 19.4466433 -28.28515625 12.359375 C-24.83056163 10.3043341 -21.28744517 8.42049126 -17.7421875 6.52734375 C-14.14555402 4.52409063 -10.71290221 2.28837455 -7.2890625 0.00390625 C-4.32206488 -1.29731967 -3.10345318 -0.8638219 0 0 Z M91.875 35.6875 C91.29403564 36.05037109 90.71307129 36.41324219 90.11450195 36.78710938 C88.40731069 37.85431124 86.70359753 38.9270707 85 40 C83.39606889 41.00037777 81.7919521 42.00045803 80.1875 43 C79.135625 43.66 78.08375 44.32 77 45 C79.82376104 47.20437634 82.6967209 49.04128253 85.82421875 50.78515625 C87.23247925 51.57466675 87.23247925 51.57466675 88.66918945 52.38012695 C89.66523193 52.93531006 90.66127441 53.49049316 91.6875 54.0625 C99.84304552 58.63086822 107.94839745 63.26343965 115.94604492 68.10375977 C119.24111647 70.26674701 119.24111647 70.26674701 123 71 C123 71.66 123 72.32 123 73 C124.95585325 74.00484204 126.91476237 75.00373805 128.875 76 C129.96554687 76.556875 131.05609375 77.11375 132.1796875 77.6875 C134.78375082 79.14064094 134.78375082 79.14064094 137 79 C137 79.66 137 80.32 137 81 C138.051875 81.495 139.10375 81.99 140.1875 82.5 C144.03644173 84.41767061 147.66316355 86.60178565 151.3125 88.875 C162.51370781 96.45131311 162.51370781 96.45131311 175 101 C179.96092425 98.78700277 184.65161691 95.9902226 189.375 93.3125 C190.11105469 92.89677734 190.84710938 92.48105469 191.60546875 92.05273438 C193.40438498 91.03646352 195.20229626 90.01841412 197 89 C195.515 88.505 195.515 88.505 194 88 C194 87.34 194 86.68 194 86 C193.35675781 85.6596875 192.71351563 85.319375 192.05078125 84.96875 C185.56024867 81.48738017 179.27263793 77.75556202 173.04296875 73.83203125 C170.08622159 72.05191005 167.08759884 70.54008836 164 69 C160.58319831 67.11996635 157.19719729 65.18711602 153.8125 63.25 C152.8735791 62.71358887 151.9346582 62.17717773 150.96728516 61.62451172 C145.32737761 58.3853558 139.81045897 55.0348716 134.359375 51.48828125 C131.13927374 49.45705843 127.8080732 47.67647331 124.44921875 45.88671875 C121.51116442 44.27960636 118.60692325 42.63143102 115.70703125 40.95703125 C114.28656494 40.13755005 114.28656494 40.13755005 112.83740234 39.30151367 C110.91781674 38.19174819 109.00013964 37.07867436 107.08447266 35.9621582 C106.19937012 35.45128662 105.31426758 34.94041504 104.40234375 34.4140625 C103.60304443 33.9495166 102.80374512 33.4849707 101.98022461 33.00634766 C97.79836619 30.88113246 95.56933677 33.36889653 91.875 35.6875 Z " fill="#E6EAED" transform="translate(217,15)"/>
<path d="M0 0 C0.66 0.33 1.32 0.66 2 1 C1.01 1.66 0.02 2.32 -1 3 C-1.31146922 6.05516267 -1.42686886 8.91087992 -1.41650391 11.97021484 C-1.42510909 12.90614881 -1.43371428 13.84208277 -1.44258022 14.80637836 C-1.46793137 17.94130749 -1.47211059 21.07591437 -1.4765625 24.2109375 C-1.4906163 26.42414746 -1.50605947 28.63734898 -1.52281189 30.85054016 C-1.55587978 35.57063448 -1.57990668 40.29065368 -1.59671021 45.01083374 C-1.62297168 52.35604935 -1.66849505 59.70105471 -1.71850586 67.04614258 C-1.73500367 69.4954374 -1.75146791 71.94473244 -1.76789856 74.39402771 C-1.77602884 75.60445677 -1.78415913 76.81488583 -1.79253578 78.06199455 C-1.81643873 81.7354597 -1.83834436 85.40893174 -1.85966492 89.08241272 C-1.97649345 108.89575912 -2.20945053 128.70567791 -2.52776337 148.51673126 C-2.56256864 150.69178916 -2.59663142 152.86685742 -2.63043213 155.04193115 C-2.74935853 162.69469262 -2.87159611 170.34739134 -3 178 C-1.35 178.66 0.3 179.32 2 180 C2 180.33 2 180.66 2 181 C0.35 181 -1.3 181 -3 181 C-4.47792406 178.04415189 -4.13625586 175.39838351 -4.14717102 172.09803772 C-4.15084771 171.37974035 -4.1545244 170.66144298 -4.1583125 169.92137903 C-4.16937005 167.50234777 -4.17319663 165.08335942 -4.17700195 162.66430664 C-4.18326489 160.93490969 -4.18991154 159.2055141 -4.19691467 157.47612 C-4.21433674 152.76958022 -4.22487909 148.0630506 -4.2331202 143.35648656 C-4.23826635 140.41866519 -4.24434216 137.480847 -4.25063133 134.54302788 C-4.26968424 125.35879846 -4.28391683 116.1745771 -4.2922433 106.99033171 C-4.30202606 96.37408266 -4.3283722 85.75804153 -4.36874419 75.14186579 C-4.39885169 66.94481698 -4.41370694 58.74782797 -4.41702431 50.55072492 C-4.41938038 45.65057023 -4.42841305 40.75063766 -4.45348549 35.85054207 C-4.47667846 31.24338262 -4.48103508 26.63659292 -4.47072411 22.02939034 C-4.47022653 20.33583856 -4.47661176 18.64226912 -4.49028015 16.94877243 C-4.5078632 14.64171425 -4.50096176 12.33600282 -4.48774719 10.02894592 C-4.49013555 8.73642442 -4.4925239 7.44390291 -4.49498463 6.11221409 C-4 3 -4 3 -1.9695158 1.06069088 C-1.31957559 0.71066289 -0.66963537 0.3606349 0 0 Z " fill="#787A7D" transform="translate(117,160)"/>
<path d="M0 0 C5.1576857 1.41836357 9.79975258 3.67391575 14 7 C14 7.66 14 8.32 14 9 C12.54462432 9.83848804 11.08559627 10.67063934 9.625 11.5 C8.81289062 11.9640625 8.00078125 12.428125 7.1640625 12.90625 C5 14 5 14 3 14 C3.57344937 11.13275314 3.8614515 10.1385485 6 8 C4.68 7.67 3.36 7.34 2 7 C1.34 4.69 0.68 2.38 0 0 Z " fill="#9D9E9F" transform="translate(227,22)"/>
<path d="M0 0 C0.66 0.33 1.32 0.66 2 1 C1.67 1.66 1.34 2.32 1 3 C0.34 3 -0.32 3 -1 3 C-1 3.66 -1 4.32 -1 5 C-4.33503641 8.1444629 -6.61343244 9.12398429 -11 10 C-12.71339731 10.73393598 -14.40203864 11.52808771 -16.0625 12.375 C-17.31740234 13.00535156 -17.31740234 13.00535156 -18.59765625 13.6484375 C-21.03827888 14.92434743 -21.03827888 14.92434743 -23.05859375 16.7265625 C-25 18 -25 18 -27.25 17.6875 C-27.8275 17.460625 -28.405 17.23375 -29 17 C-28.16339844 16.52691406 -27.32679688 16.05382812 -26.46484375 15.56640625 C-25.28888749 14.89874565 -24.11312159 14.2307497 -22.9375 13.5625 C-22.31713867 13.2106665 -21.69677734 12.85883301 -21.05761719 12.49633789 C-17.60453922 10.52666698 -14.18507091 8.51560188 -10.80078125 6.4296875 C-10.12345947 6.01388428 -9.4461377 5.59808105 -8.74829102 5.16967773 C-7.42816274 4.35566584 -6.11213134 3.53496773 -4.80053711 2.70727539 C-3.23587441 1.74458401 -1.62138347 0.86374748 0 0 Z " fill="#636364" transform="translate(270,41)"/>
<path d="M0 0 C0.33 0 0.66 0 1 0 C1 13.86 1 27.72 1 42 C2.65 42.66 4.3 43.32 6 44 C6 44.33 6 44.66 6 45 C4.35 45 2.7 45 1 45 C-0.15410254 42.69179492 -0.1210297 41.39215724 -0.11352539 38.82568359 C-0.11344986 37.96494232 -0.11337433 37.10420105 -0.11329651 36.21737671 C-0.10813522 35.28712677 -0.10297394 34.35687683 -0.09765625 33.3984375 C-0.0962413 32.44683746 -0.09482635 31.49523743 -0.09336853 30.51480103 C-0.08776012 27.46816903 -0.07520619 24.42160987 -0.0625 21.375 C-0.05748608 19.31250106 -0.05292299 17.25000097 -0.04882812 15.1875 C-0.03778796 10.12497183 -0.02051767 5.06249827 0 0 Z " fill="#A8ACAE" transform="translate(113,296)"/>
<path d="M0 0 C0 0.66 0 1.32 0 2 C-0.66 2 -1.32 2 -2 2 C-1.67 3.32 -1.34 4.64 -1 6 C-3.97 5.505 -3.97 5.505 -7 5 C-7.33 6.32 -7.66 7.64 -8 9 C-14.75 10.125 -14.75 10.125 -17 9 C-15.40089132 7.99193149 -13.79551738 6.99379615 -12.1875 6 C-10.84751953 5.1646875 -10.84751953 5.1646875 -9.48046875 4.3125 C-7 3 -7 3 -4 3 C-4 2.34 -4 1.68 -4 1 C-2 0 -2 0 0 0 Z " fill="#898C8E" transform="translate(167,41)"/>
<path d="M0 0 C3.40312738 1.05875074 6.01353231 2.00902154 9 4 C8.67 4.99 8.34 5.98 8 7 C6.35 7.33 4.7 7.66 3 8 C0 1.125 0 1.125 0 0 Z " fill="#B8B9BD" transform="translate(227,22)"/>
<path d="M0 0 C0.98742188 0.56589844 1.97484375 1.13179688 2.9921875 1.71484375 C4.28644206 2.45575759 5.58071379 3.19664145 6.875 3.9375 C7.52597656 4.31068359 8.17695312 4.68386719 8.84765625 5.06835938 C12.38746834 7.10133078 12.38746834 7.10133078 16 9 C15.67 9.66 15.34 10.32 15 11 C14.2265625 10.566875 14.2265625 10.566875 13.4375 10.125 C10.37643275 8.71219973 7.25055082 7.8751483 4 7 C3.896875 6.360625 3.79375 5.72125 3.6875 5.0625 C3.460625 4.381875 3.23375 3.70125 3 3 C2.01 2.67 1.02 2.34 0 2 C0 1.34 0 0.68 0 0 Z " fill="#747677" transform="translate(63,307)"/>
<path d="M0 0 C5.96652354 1.57013777 10.82909025 4.75029782 16 8 C14 9 14 9 10.875 8.0625 C9.92625 7.711875 8.9775 7.36125 8 7 C8 6.34 8 5.68 8 5 C7.01 5.33 6.02 5.66 5 6 C3.31237149 4.3545622 1.6459651 2.68711423 0 1 C0 0.67 0 0.34 0 0 Z " fill="#858889" transform="translate(200,388)"/>
<path d="M0 0 C2.875 -0.125 2.875 -0.125 6 0 C6.66 0.66 7.32 1.32 8 2 C8.99 2 9.98 2 11 2 C12 4 13 6 14 8 C8.76481294 6.56032356 4.36973991 4.18303389 0 1 C0 0.67 0 0.34 0 0 Z " fill="#8D8E8F" transform="translate(395,386)"/>
<path d="M0 0 C0.33 0.66 0.66 1.32 1 2 C1.99 2 2.98 2 4 2 C4 2.66 4 3.32 4 4 C2.21385682 5.03046722 0.42089982 6.04913236 -1.375 7.0625 C-2.87160156 7.91521484 -2.87160156 7.91521484 -4.3984375 8.78515625 C-5.25695312 9.18605469 -6.11546875 9.58695312 -7 10 C-7.66 9.67 -8.32 9.34 -9 9 C-8.67 8.01 -8.34 7.02 -8 6 C-6.68 6 -5.36 6 -4 6 C-4 5.01 -4 4.02 -4 3 C-2.68 3.33 -1.36 3.66 0 4 C0 2.68 0 1.36 0 0 Z " fill="#959699" transform="translate(269,448)"/>
<path d="M0 0 C5.84474908 1.94824969 10.12031942 4.23857955 15 8 C13.18359375 8.6484375 13.18359375 8.6484375 11 9 C9.48119608 7.77203087 7.96572536 6.53610523 6.52734375 5.21484375 C4.47395986 3.58158955 2.58058099 3.22769832 0 3 C0 2.01 0 1.02 0 0 Z " fill="#7A7B7B" transform="translate(440,87)"/>
<path d="M0 0 C1.65 0 3.3 0 5 0 C5 0.66 5 1.32 5 2 C8.3 1.67 11.6 1.34 15 1 C11.09302326 4.90697674 11.09302326 4.90697674 7 5 C4.47221878 3.87537384 2.33709886 2.51224044 0 1 C0 0.67 0 0.34 0 0 Z " fill="#7D7E80" transform="translate(308,481)"/>
<path d="M0 0 C2.64 0 5.28 0 8 0 C4.35231714 4.25563001 -0.88059742 6.04258136 -6 8 C-5.54625 7.5875 -5.0925 7.175 -4.625 6.75 C-2.94049626 4.93591905 -2.00734029 3.24714373 -1 1 C-1 1.66 -1 2.32 -1 3 C-0.34 3 0.32 3 1 3 C0.67 2.01 0.34 1.02 0 0 Z " fill="#8F9197" transform="translate(423,420)"/>
<path d="M0 0 C2.31 0.33 4.62 0.66 7 1 C4.20283196 4.29078593 0.80471422 6.06305458 -3 8 C-3.66 7.67 -4.32 7.34 -5 7 C-4.01 6.34 -3.02 5.68 -2 5 C-2 4.01 -2 3.02 -2 2 C-1.34 2 -0.68 2 0 2 C0 1.34 0 0.68 0 0 Z " fill="#9C9C9E" transform="translate(152,136)"/>
<path d="M0 0 C5.96652354 1.57013777 10.82909025 4.75029782 16 8 C14 9 14 9 12.0625 8.75 C10 8 10 8 8.6875 6.5625 C6.15934702 4.22161761 3.28887243 3.80670456 0 3 C0 2.01 0 1.02 0 0 Z " fill="#727576" transform="translate(424,78)"/>
<path d="M0 0 C0.66 0.33 1.32 0.66 2 1 C1.67 1.66 1.34 2.32 1 3 C0.34 3 -0.32 3 -1 3 C-1 3.66 -1 4.32 -1 5 C-5.47058824 9 -5.47058824 9 -8 9 C-7.9375 6.75 -7.9375 6.75 -7 4 C-4.75412136 2.18298261 -2.67371119 1.21958756 0 0 Z " fill="#999C9E" transform="translate(270,41)"/>
<path d="M0 0 C0 0.66 0 1.32 0 2 C-0.99 2 -1.98 2 -3 2 C-2.67 3.32 -2.34 4.64 -2 6 C-5.47325181 7.1577506 -8.36067448 7.06866652 -12 7 C-9.20232475 3.70861735 -4.40323273 0 0 0 Z " fill="#9A9C9C" transform="translate(347,377)"/>
<path d="M0 0 C0 0.66 0 1.32 0 2 C-0.66 2 -1.32 2 -2 2 C-2.33 3.32 -2.66 4.64 -3 6 C-7.455 6.495 -7.455 6.495 -12 7 C-8.8380314 3.47318887 -4.98182478 0 0 0 Z " fill="#888A8C" transform="translate(128,124)"/>
<path d="M0 0 C4.30764815 1.56641751 8.06171464 3.68336156 12 6 C11.01 6.66 10.02 7.32 9 8 C9 7.34 9 6.68 9 6 C8.01 6.33 7.02 6.66 6 7 C3.29291902 6.09763967 2.23979881 5.39566803 0.75 2.9375 C0 1 0 1 0 0 Z " fill="#949598" transform="translate(449,390)"/>
<path d="M0 0 C0 0.66 0 1.32 0 2 C-1.72526042 2.9765625 -3.45052083 3.953125 -5.17578125 4.9296875 C-6.81982289 5.89428581 -8.41400588 6.94267059 -10 8 C-12.1875 7.625 -12.1875 7.625 -14 7 C-12.04480616 5.82807953 -10.0857461 4.6626071 -8.125 3.5 C-7.03445313 2.8503125 -5.94390625 2.200625 -4.8203125 1.53125 C-2 0 -2 0 0 0 Z " fill="#818384" transform="translate(366,366)"/>
<path d="M0 0 C4.30764815 1.56641751 8.06171464 3.68336156 12 6 C11.01 6.495 11.01 6.495 10 7 C9.34 6.67 8.68 6.34 8 6 C7.67 6.66 7.34 7.32 7 8 C6.01 7.67 5.02 7.34 4 7 C3.67 5.35 3.34 3.7 3 2 C2.01 1.67 1.02 1.34 0 1 C0 0.67 0 0.34 0 0 Z " fill="#8F9295" transform="translate(133,349)"/>
<path d="M0 0 C0.99 0.66 1.98 1.32 3 2 C1.58833114 2.98635837 0.17043816 3.96381255 -1.25 4.9375 C-2.43335938 5.75541016 -2.43335938 5.75541016 -3.640625 6.58984375 C-5.82636993 7.89622441 -7.5153801 8.54980511 -10 9 C-9.1875 7.0625 -9.1875 7.0625 -8 5 C-5 4 -5 4 -2.875 3.625 C-2.25625 3.41875 -1.6375 3.2125 -1 3 C-0.67 2.01 -0.34 1.02 0 0 Z " fill="#888B8D" transform="translate(431,118)"/>
<path d="M0 0 C0 0.66 0 1.32 0 2 C-0.99 2 -1.98 2 -3 2 C-3.2475 2.61875 -3.495 3.2375 -3.75 3.875 C-5.24391702 6.41465893 -6.21539622 7.09909878 -9 8 C-11.1328125 7.54296875 -11.1328125 7.54296875 -13 7 C-11.21190303 5.82786955 -9.41940875 4.66244474 -7.625 3.5 C-6.62726563 2.8503125 -5.62953125 2.200625 -4.6015625 1.53125 C-2 0 -2 0 0 0 Z " fill="#8A8B8C" transform="translate(122,67)"/>
<path d="M0 0 C-1.52417109 3.04834217 -3.96038723 3.62919424 -7 5 C-9.375 5.6875 -9.375 5.6875 -11 6 C-10.34 5.67 -9.68 5.34 -9 5 C-9 3.68 -9 2.36 -9 1 C-6.04335481 -0.4783226 -3.25770263 -0.06032783 0 0 Z " fill="#A1A4A5" transform="translate(385,386)"/>
<path d="M0 0 C0.99 1.32 1.98 2.64 3 4 C2.34 5.32 1.68 6.64 1 8 C-4.875 5.25 -4.875 5.25 -6 3 C-4.02 3 -2.04 3 0 3 C0 2.01 0 1.02 0 0 Z " fill="#B2B3B5" transform="translate(386,80)"/>
<path d="M0 0 C0.680625 0.391875 1.36125 0.78375 2.0625 1.1875 C2.805 1.55875 3.5475 1.93 4.3125 2.3125 C4.89 2.60125 5.4675 2.89 6.0625 3.1875 C6.0625 4.1775 6.0625 5.1675 6.0625 6.1875 C1.55447399 4.92944623 -1.4287812 3.28342835 -4.9375 0.1875 C-1.9375 -0.8125 -1.9375 -0.8125 0 0 Z " fill="#9B9D9E" transform="translate(326.9375,49.8125)"/>
<path d="M0 0 C0.99 2.31 1.98 4.62 3 7 C-3.75 5.375 -3.75 5.375 -6 2 C-2.25 0 -2.25 0 0 0 Z " fill="#B4B7BA" transform="translate(319,43)"/>
<path d="M0 0 C1.32 0.66 2.64 1.32 4 2 C-2.23333333 6.03333333 -2.23333333 6.03333333 -5.875 5.875 C-8 5 -8 5 -9 3 C-6.36 3 -3.72 3 -1 3 C-0.67 2.01 -0.34 1.02 0 0 Z " fill="#87888B" transform="translate(218,479)"/>
<path d="M0 0 C0.33 0.66 0.66 1.32 1 2 C1.99 2.33 2.98 2.66 4 3 C2.02 4.32 0.04 5.64 -2 7 C-2.66 6.67 -3.32 6.34 -4 6 C-4.625 3.4375 -4.625 3.4375 -5 1 C-4.01 1 -3.02 1 -2 1 C-1.34 0.67 -0.68 0.34 0 0 Z " fill="#B2B6B9" transform="translate(254,457)"/>
<path d="M0 0 C4.30764815 1.56641751 8.06171464 3.68336156 12 6 C8.74489197 7.62755402 6.43821049 6.90479223 3 6 C1.0625 2.9375 1.0625 2.9375 0 0 Z " fill="#88898B" transform="translate(169,428)"/>
<path d="M0 0 C3.45925163 1.2491742 6.14693203 2.67527795 9 5 C7.68 5 6.36 5 5 5 C5 5.66 5 6.32 5 7 C3.68 6.67 2.36 6.34 1 6 C1 5.01 1 4.02 1 3 C0.67 2.01 0.34 1.02 0 0 Z " fill="#A8AAAB" transform="translate(119,341)"/>
<path d="M0 0 C1.98 0.66 3.96 1.32 6 2 C6 2.66 6 3.32 6 4 C7.2065625 4.185625 7.2065625 4.185625 8.4375 4.375 C9.7059375 4.684375 9.7059375 4.684375 11 5 C11.33 5.66 11.66 6.32 12 7 C9.36 6.67 6.72 6.34 4 6 C3.67 5.01 3.34 4.02 3 3 C2.01 3 1.02 3 0 3 C0 2.01 0 1.02 0 0 Z " fill="#88898B" transform="translate(334,84)"/>
<path d="M0 0 C-0.33 0.66 -0.66 1.32 -1 2 C-0.34 2 0.32 2 1 2 C1 2.66 1 3.32 1 4 C-2.77545388 2.90931332 -5.47043472 2.0916909 -8 -1 C-4.59745511 -2.2151946 -3.06748874 -1.86240388 0 0 Z " fill="#A0A2A4" transform="translate(200,415)"/>
<path d="M0 0 C1.32 0.33 2.64 0.66 4 1 C4 1.99 4 2.98 4 4 C4.66 4.33 5.32 4.66 6 5 C4.02 5.66 2.04 6.32 0 7 C0 4.69 0 2.38 0 0 Z " fill="#B9BCBF" transform="translate(209,41)"/>
<path d="M0 0 C0 0.66 0 1.32 0 2 C-1.609375 3.32421875 -1.609375 3.32421875 -3.75 4.6875 C-4.44609375 5.14511719 -5.1421875 5.60273437 -5.859375 6.07421875 C-8.39090725 7.16906025 -9.46100862 6.9435441 -12 6 C-10.37829621 4.99466333 -8.75252763 3.99588093 -7.125 3 C-5.76761719 2.1646875 -5.76761719 2.1646875 -4.3828125 1.3125 C-2 0 -2 0 0 0 Z " fill="#828486" transform="translate(188,29)"/>
<path d="M0 0 C0 0.66 0 1.32 0 2 C-0.66 2 -1.32 2 -2 2 C-2 2.66 -2 3.32 -2 4 C-6.95 5.485 -6.95 5.485 -12 7 C-10.67368911 4.34737821 -9.14656892 3.78900251 -6.5625 2.375 C-5.75941406 1.92898438 -4.95632813 1.48296875 -4.12890625 1.0234375 C-2 0 -2 0 0 0 Z " fill="#7C7E7F" transform="translate(321,392)"/>
<path d="M0 0 C0.66 0.33 1.32 0.66 2 1 C0.02 3.97 0.02 3.97 -2 7 C-4.97 6.505 -4.97 6.505 -8 6 C-5.38485683 3.87961365 -2.80362384 1.86908256 0 0 Z " fill="#9B9C9D" transform="translate(345,437)"/>
<path d="M0 0 C0.99 0.33 1.98 0.66 3 1 C3 1.99 3 2.98 3 4 C3.66 4.66 4.32 5.32 5 6 C2.625 7.5625 2.625 7.5625 0 9 C-0.66 8.67 -1.32 8.34 -2 8 C-2 6 -2 6 0 4 C0 2.68 0 1.36 0 0 Z " fill="#B3B3B5" transform="translate(396,432)"/>
<path d="M0 0 C0 0.66 0 1.32 0 2 C-6.45 6.09326923 -6.45 6.09326923 -9.234375 5.62109375 C-9.81703125 5.41613281 -10.3996875 5.21117188 -11 5 C-9.54462432 4.16151196 -8.08559627 3.32936066 -6.625 2.5 C-5.81289062 2.0359375 -5.00078125 1.571875 -4.1640625 1.09375 C-2 0 -2 0 0 0 Z " fill="#858687" transform="translate(184,92)"/>
<path d="M0 0 C-1.28524261 0.86380259 -2.57842419 1.71580369 -3.875 2.5625 C-4.59429687 3.03816406 -5.31359375 3.51382813 -6.0546875 4.00390625 C-6.69664062 4.33261719 -7.33859375 4.66132812 -8 5 C-8.66 4.67 -9.32 4.34 -10 4 C-9.375 2.0625 -9.375 2.0625 -8 0 C-2.81081081 -1.40540541 -2.81081081 -1.40540541 0 0 Z " fill="#909394" transform="translate(312,50)"/>
<path d="M0 0 C3.96670899 0.44074544 6.68811135 1.82361603 10 4 C8 5 8 5 4.5 4.1875 C1 3 1 3 -1 1 C-0.67 0.67 -0.34 0.34 0 0 Z " fill="#737577" transform="translate(212,14)"/>
<path d="M0 0 C-1.15173355 2.46800047 -2.04783565 4.04783565 -4 6 C-6.625 5.625 -6.625 5.625 -9 5 C-2.87096774 0 -2.87096774 0 0 0 Z " fill="#A2A4A6" transform="translate(332,446)"/>
<path d="M0 0 C2.64 0.33 5.28 0.66 8 1 C8.66 2.65 9.32 4.3 10 6 C6.00499382 4.6302836 3.19990508 2.74277578 0 0 Z " fill="#9A9C9E" transform="translate(116,428)"/>
<path d="M0 0 C1.32 0.99 2.64 1.98 4 3 C4.33 2.34 4.66 1.68 5 1 C5.99 2.98 6.98 4.96 8 7 C3.56909529 5.79157144 1.01887244 4.48331435 -2 1 C-1.34 0.67 -0.68 0.34 0 0 Z " fill="#909294" transform="translate(105,361)"/>
<path d="M0 0 C3.19902639 -0.08886184 5.92677456 0.08941469 9 1 C9 2.32 9 3.64 9 5 C5.22454612 3.90931332 2.52956528 3.0916909 0 0 Z " fill="#9C9FA4" transform="translate(295,92)"/>
<path d="M0 0 C0.33 0.99 0.66 1.98 1 3 C1.66 3.33 2.32 3.66 3 4 C0.625 5.5625 0.625 5.5625 -2 7 C-2.66 6.67 -3.32 6.34 -4 6 C-3.67 4.68 -3.34 3.36 -3 2 C-2.01 2 -1.02 2 0 2 C0 1.34 0 0.68 0 0 Z " fill="#ACAFB1" transform="translate(142,82)"/>
<path d="M0 0 C-1.40552299 1.03612271 -2.82491694 2.05344925 -4.25 3.0625 C-5.43335937 3.91521484 -5.43335937 3.91521484 -6.640625 4.78515625 C-9 6 -9 6 -11.296875 5.68359375 C-11.85890625 5.45800781 -12.4209375 5.23242188 -13 5 C-11.40377344 3.96679519 -9.79770894 2.94877571 -8.1875 1.9375 C-7.29417969 1.36902344 -6.40085937 0.80054687 -5.48046875 0.21484375 C-3 -1 -3 -1 0 0 Z " fill="#626365" transform="translate(109,76)"/>
<path d="M0 0 C3.33333333 1.66666667 6.66666667 3.33333333 10 5 C6.93109813 6.53445094 4.29905734 5.54984289 1 5 C0.67 3.35 0.34 1.7 0 0 Z " fill="#8C9092" transform="translate(345,32)"/>
<path d="M0 0 C0.99 0.33 1.98 0.66 3 1 C0.25 4.875 0.25 4.875 -2 6 C-2 5.34 -2 4.68 -2 4 C-3.32 4.33 -4.64 4.66 -6 5 C-4.06745228 2.9754262 -2.36841312 1.57894208 0 0 Z " fill="#87898B" transform="translate(315,15)"/>
<path d="M0 0 C-1.6188996 1.03048037 -3.24532489 2.04914678 -4.875 3.0625 C-5.77992188 3.63097656 -6.68484375 4.19945312 -7.6171875 4.78515625 C-8.40351563 5.18605469 -9.18984375 5.58695312 -10 6 C-10.66 5.67 -11.32 5.34 -12 5 C-4.66666667 -2.33333333 -4.66666667 -2.33333333 0 0 Z " fill="#727475" transform="translate(368,457)"/>
<path d="M0 0 C1.32 0.66 2.64 1.32 4 2 C-1.2734375 5.22265625 -1.2734375 5.22265625 -3 6 C-3.66 5.67 -4.32 5.34 -5 5 C-3.35 3.35 -1.7 1.7 0 0 Z " fill="#A1A4A6" transform="translate(308,427)"/>
<path d="M0 0 C-1.0975223 2.99324263 -1.67682892 3.84610901 -4.625 5.25 C-5.40875 5.4975 -6.1925 5.745 -7 6 C-7.66 5.34 -8.32 4.68 -9 4 C-2.25 0 -2.25 0 0 0 Z " fill="#999C9F" transform="translate(370,424)"/>
<path d="M0 0 C2.75 -0.375 2.75 -0.375 6 0 C8.375 3 8.375 3 10 6 C5.56909529 4.79157144 3.01887244 3.48331435 0 0 Z " fill="#868789" transform="translate(49,331)"/>
<path d="M0 0 C1.32 0.66 2.64 1.32 4 2 C-2.75 6 -2.75 6 -5 6 C-5 4.68 -5 3.36 -5 2 C-2.525 2.495 -2.525 2.495 0 3 C0 2.01 0 1.02 0 0 Z " fill="#8D8E92" transform="translate(124,154)"/>
<path d="M0 0 C0 0.66 0 1.32 0 2 C-1.96147874 3.38938077 -3.96166576 4.7260411 -6 6 C-6.99 5.34 -7.98 4.68 -9 4 C-2.25 0 -2.25 0 0 0 Z " fill="#7F8182" transform="translate(414,104)"/>
<path d="M0 0 C1.32 0.33 2.64 0.66 4 1 C1.1875 3.0625 1.1875 3.0625 -2 5 C-2.99 4.67 -3.98 4.34 -5 4 C-4.67 3.34 -4.34 2.68 -4 2 C-2.68 2 -1.36 2 0 2 C0 1.34 0 0.68 0 0 Z " fill="#A5A7A9" transform="translate(335,472)"/>
<path d="M0 0 C0 0.66 0 1.32 0 2 C-2.30276574 4.21747812 -3.52480092 4.96760006 -6.75 5.1875 C-7.86375 5.0946875 -7.86375 5.0946875 -9 5 C-6.45523312 2.20075644 -3.92372883 0 0 0 Z " fill="#858688" transform="translate(313,457)"/>
<path d="M0 0 C2.4375 1.1875 2.4375 1.1875 3.4375 3.1875 C2.550625 3.001875 1.66375 2.81625 0.75 2.625 C-2.41428811 2.20707516 -4.51089642 2.37972258 -7.5625 3.1875 C-3.4632323 -1.09809805 -3.4632323 -1.09809805 0 0 Z " fill="#5C5E61" transform="translate(389.5625,353.8125)"/>
<path d="M0 0 C3.37503669 1.1858237 5.64722731 2.27573689 8 5 C6.35 5.66 4.7 6.32 3 7 C2.67 6.34 2.34 5.68 2 5 C2.33 4.01 2.66 3.02 3 2 C2.01 1.67 1.02 1.34 0 1 C0 0.67 0 0.34 0 0 Z " fill="#8A8E90" transform="translate(355,96)"/>
<path d="M0 0 C0 0.99 0 1.98 0 3 C-6.75 4.125 -6.75 4.125 -9 3 C-5.81237635 0.87491756 -3.73487777 0.4979837 0 0 Z " fill="#ACB0B3" transform="translate(159,47)"/>
<path d="M0 0 C0 0.66 0 1.32 0 2 C-2.30276574 4.21747812 -3.52480092 4.96760006 -6.75 5.1875 C-7.86375 5.0946875 -7.86375 5.0946875 -9 5 C-6.45523312 2.20075644 -3.92372883 0 0 0 Z " fill="#747678" transform="translate(176,36)"/>
<path d="M0 0 C0.66 0.33 1.32 0.66 2 1 C1.34 2.98 0.68 4.96 0 7 C-1.65 5.68 -3.3 4.36 -5 3 C-2.625 1.4375 -2.625 1.4375 0 0 Z " fill="#9DA0A3" transform="translate(279,415)"/>
<path d="M0 0 C2.97 0.495 2.97 0.495 6 1 C1.25 5 1.25 5 -1 5 C-0.67 3.35 -0.34 1.7 0 0 Z " fill="#A7AAAC" transform="translate(437,412)"/>
<path d="M0 0 C1.32 0 2.64 0 4 0 C4 0.99 4 1.98 4 3 C3.01 3 2.02 3 1 3 C0.67 3.99 0.34 4.98 0 6 C-1.32 5.67 -2.64 5.34 -4 5 C-3.34 4.360625 -2.68 3.72125 -2 3.0625 C0.11602431 1.35917681 0.11602431 1.35917681 0 0 Z " fill="#6D6E70" transform="translate(412,396)"/>
<path d="M0 0 C0.99 0.99 1.98 1.98 3 3 C2.67 3.66 2.34 4.32 2 5 C2.99 5 3.98 5 5 5 C4.67 5.66 4.34 6.32 4 7 C3.01 6.67 2.02 6.34 1 6 C1 5.34 1 4.68 1 4 C-0.32 3.67 -1.64 3.34 -3 3 C-2.01 2.67 -1.02 2.34 0 2 C0 1.34 0 0.68 0 0 Z " fill="#8E9095" transform="translate(410,97)"/>
<path d="M0 0 C0 0.66 0 1.32 0 2 C-1.65 2.33 -3.3 2.66 -5 3 C-5.33 3.99 -5.66 4.98 -6 6 C-7.32 5.67 -8.64 5.34 -10 5 C-8.71186658 4.16121545 -7.41936744 3.32913217 -6.125 2.5 C-5.40570313 2.0359375 -4.68640625 1.571875 -3.9453125 1.09375 C-2 0 -2 0 0 0 Z " fill="#69696B" transform="translate(136,59)"/>
<path d="M0 0 C0.33 1.65 0.66 3.3 1 5 C-1.02045442 4.39816251 -3.02111039 3.72693904 -5 3 C-5.33 2.34 -5.66 1.68 -6 1 C-3.92446352 0.4465236 -2.15634036 0 0 0 Z " fill="#9B9C9E" transform="translate(344,58)"/>
<path d="M0 0 C2.475 0.99 2.475 0.99 5 2 C3.35 3.32 1.7 4.64 0 6 C-0.66 5.67 -1.32 5.34 -2 5 C-1.125 1.125 -1.125 1.125 0 0 Z " fill="#969697" transform="translate(187,56)"/>
<path d="M0 0 C2.31 0.33 4.62 0.66 7 1 C7.33 2.32 7.66 3.64 8 5 C2.25 3.375 2.25 3.375 0 0 Z " fill="#898B8C" transform="translate(194,473)"/>
<path d="M0 0 C0.66 0.33 1.32 0.66 2 1 C0.1875 3.5 0.1875 3.5 -2 6 C-2.99 6 -3.98 6 -5 6 C-4.75 4.125 -4.75 4.125 -4 2 C-2.0625 0.6875 -2.0625 0.6875 0 0 Z " fill="#717173" transform="translate(295,466)"/>
<path d="M0 0 C0.66 0.33 1.32 0.66 2 1 C2.625 3.5625 2.625 3.5625 3 6 C-1.875 4.25 -1.875 4.25 -3 2 C-2.01 1.34 -1.02 0.68 0 0 Z " fill="#9D9FA3" transform="translate(188,466)"/>
<path d="M0 0 C3.77545388 1.09068668 6.47043472 1.9083091 9 5 C7.35 5 5.7 5 4 5 C4 4.34 4 3.68 4 3 C2.35 2.67 0.7 2.34 -1 2 C-0.67 1.34 -0.34 0.68 0 0 Z " fill="#838586" transform="translate(221,400)"/>
<path d="M0 0 C1.98 0.495 1.98 0.495 4 1 C3.67 2.32 3.34 3.64 3 5 C1.68 5.33 0.36 5.66 -1 6 C-0.67 4.02 -0.34 2.04 0 0 Z " fill="#7C7C7F" transform="translate(461,397)"/>
<path d="M0 0 C0.66 0.33 1.32 0.66 2 1 C-2.296875 5.00390625 -2.296875 5.00390625 -4 6 C-6.203125 5.65234375 -6.203125 5.65234375 -8 5 C-6.71475739 4.13619741 -5.42157581 3.28419631 -4.125 2.4375 C-3.04605469 1.72400391 -3.04605469 1.72400391 -1.9453125 0.99609375 C-1.30335938 0.66738281 -0.66140625 0.33867187 0 0 Z " fill="#727375" transform="translate(329,386)"/>
<path d="M0 0 C0.66 0.33 1.32 0.66 2 1 C-2.296875 5.00390625 -2.296875 5.00390625 -4 6 C-6.203125 5.65234375 -6.203125 5.65234375 -8 5 C-6.71475739 4.13619741 -5.42157581 3.28419631 -4.125 2.4375 C-3.04605469 1.72400391 -3.04605469 1.72400391 -1.9453125 0.99609375 C-1.30335938 0.66738281 -0.66140625 0.33867187 0 0 Z " fill="#6B6C6D" transform="translate(196,23)"/>
<path d="M0 0 C0.66 0 1.32 0 2 0 C2.99 2.31 3.98 4.62 5 7 C2.08482708 5.92598892 0.22189824 5.22189824 -2 3 C-1.01 3 -0.02 3 1 3 C0.67 2.01 0.34 1.02 0 0 Z " fill="#A7A9AA" transform="translate(170,397)"/>
<path d="M0 0 C0.33 0 0.66 0 1 0 C1 1.98 1 3.96 1 6 C3.475 6.99 3.475 6.99 6 8 C6 8.33 6 8.66 6 9 C4.35 9 2.7 9 1 9 C-0.4783226 6.04335481 -0.06032783 3.25770263 0 0 Z " fill="#95979A" transform="translate(113,332)"/>
<path d="M0 0 C0.66 0.33 1.32 0.66 2 1 C0.25 3.0625 0.25 3.0625 -2 5 C-4.25 4.75 -4.25 4.75 -6 4 C-4.02 2.68 -2.04 1.36 0 0 Z " fill="#707171" transform="translate(199,82)"/>
<path d="M0 0 C0 0.66 0 1.32 0 2 C-2.5614657 4.29648649 -3.47967572 5 -7 5 C-6 2 -6 2 -4.0625 0.8125 C-2 0 -2 0 0 0 Z " fill="#7C7E80" transform="translate(262,47)"/>
<path d="M0 0 C4.31392226 0.4793247 6.16569547 1.7457985 9 5 C6.75 5.3125 6.75 5.3125 4 5 C1.6875 2.5 1.6875 2.5 0 0 Z " fill="#6D6E70" transform="translate(318,17)"/>
</svg>
